<mxfile host="65bd71144e">
    <diagram id="jz6QkTkZqMSD-VGoOakw" name="第 1 页">
        <mxGraphModel dx="647" dy="279" grid="1" gridSize="10" guides="1" tooltips="1" connect="1" arrows="1" fold="1" page="1" pageScale="1" pageWidth="827" pageHeight="1169" math="0" shadow="0">
            <root>
                <mxCell id="0"/>
                <mxCell id="1" parent="0"/>
                <mxCell id="2" value="alu" style="rounded=0;whiteSpace=wrap;html=1;" vertex="1" parent="1">
                    <mxGeometry x="50" y="180" width="180" height="130" as="geometry"/>
                </mxCell>
                <mxCell id="3" value="ready" style="rounded=0;whiteSpace=wrap;html=1;" vertex="1" parent="1">
                    <mxGeometry x="210" y="200" width="40" height="20" as="geometry"/>
                </mxCell>
                <mxCell id="4" value="rob_entry" style="rounded=0;whiteSpace=wrap;html=1;" vertex="1" parent="1">
                    <mxGeometry x="210" y="235" width="40" height="20" as="geometry"/>
                </mxCell>
                <mxCell id="5" value="val" style="rounded=0;whiteSpace=wrap;html=1;" vertex="1" parent="1">
                    <mxGeometry x="210" y="270" width="40" height="20" as="geometry"/>
                </mxCell>
                <mxCell id="6" value="rob" style="rounded=0;whiteSpace=wrap;html=1;" vertex="1" parent="1">
                    <mxGeometry x="30" y="680" width="300" height="310" as="geometry"/>
                </mxCell>
                <mxCell id="67" value="" style="endArrow=classic;html=1;fontSize=8;" edge="1" parent="1">
                    <mxGeometry width="50" height="50" relative="1" as="geometry">
                        <mxPoint x="294" y="811" as="sourcePoint"/>
                        <mxPoint x="414" y="811" as="targetPoint"/>
                    </mxGeometry>
                </mxCell>
                <mxCell id="68" value="commit_to_reg" style="edgeLabel;html=1;align=center;verticalAlign=middle;resizable=0;points=[];fontSize=8;" vertex="1" connectable="0" parent="67">
                    <mxGeometry x="0.4429" y="1" relative="1" as="geometry">
                        <mxPoint x="-20" as="offset"/>
                    </mxGeometry>
                </mxCell>
                <mxCell id="69" value="" style="endArrow=classic;html=1;fontSize=8;" edge="1" parent="1">
                    <mxGeometry width="50" height="50" relative="1" as="geometry">
                        <mxPoint x="294" y="821" as="sourcePoint"/>
                        <mxPoint x="414" y="821" as="targetPoint"/>
                    </mxGeometry>
                </mxCell>
                <mxCell id="70" value="reg_id" style="edgeLabel;html=1;align=center;verticalAlign=middle;resizable=0;points=[];fontSize=8;" vertex="1" connectable="0" parent="69">
                    <mxGeometry x="0.4429" y="1" relative="1" as="geometry">
                        <mxPoint x="-20" as="offset"/>
                    </mxGeometry>
                </mxCell>
                <mxCell id="71" value="" style="endArrow=classic;html=1;fontSize=8;" edge="1" parent="1">
                    <mxGeometry width="50" height="50" relative="1" as="geometry">
                        <mxPoint x="294" y="831" as="sourcePoint"/>
                        <mxPoint x="414" y="831" as="targetPoint"/>
                    </mxGeometry>
                </mxCell>
                <mxCell id="72" value="rob_entry" style="edgeLabel;html=1;align=center;verticalAlign=middle;resizable=0;points=[];fontSize=8;" vertex="1" connectable="0" parent="71">
                    <mxGeometry x="0.4429" y="1" relative="1" as="geometry">
                        <mxPoint x="-20" as="offset"/>
                    </mxGeometry>
                </mxCell>
                <mxCell id="73" value="" style="endArrow=classic;html=1;fontSize=8;" edge="1" parent="1">
                    <mxGeometry width="50" height="50" relative="1" as="geometry">
                        <mxPoint x="294" y="841" as="sourcePoint"/>
                        <mxPoint x="414" y="841" as="targetPoint"/>
                    </mxGeometry>
                </mxCell>
                <mxCell id="74" value="val" style="edgeLabel;html=1;align=center;verticalAlign=middle;resizable=0;points=[];fontSize=8;" vertex="1" connectable="0" parent="73">
                    <mxGeometry x="0.4429" y="1" relative="1" as="geometry">
                        <mxPoint x="-20" as="offset"/>
                    </mxGeometry>
                </mxCell>
                <mxCell id="75" value="" style="endArrow=classic;html=1;fontSize=8;" edge="1" parent="1">
                    <mxGeometry width="50" height="50" relative="1" as="geometry">
                        <mxPoint x="291" y="701" as="sourcePoint"/>
                        <mxPoint x="414" y="701" as="targetPoint"/>
                    </mxGeometry>
                </mxCell>
                <mxCell id="76" value="full" style="edgeLabel;html=1;align=center;verticalAlign=middle;resizable=0;points=[];fontSize=8;" vertex="1" connectable="0" parent="75">
                    <mxGeometry x="0.4429" y="1" relative="1" as="geometry">
                        <mxPoint x="-20" as="offset"/>
                    </mxGeometry>
                </mxCell>
                <mxCell id="77" value="" style="endArrow=classic;html=1;fontSize=8;" edge="1" parent="1">
                    <mxGeometry width="50" height="50" relative="1" as="geometry">
                        <mxPoint x="294" y="751" as="sourcePoint"/>
                        <mxPoint x="414" y="751" as="targetPoint"/>
                    </mxGeometry>
                </mxCell>
                <mxCell id="78" value="issue_to_reg" style="edgeLabel;html=1;align=center;verticalAlign=middle;resizable=0;points=[];fontSize=8;" vertex="1" connectable="0" parent="77">
                    <mxGeometry x="0.4429" y="1" relative="1" as="geometry">
                        <mxPoint x="-20" as="offset"/>
                    </mxGeometry>
                </mxCell>
                <mxCell id="79" value="" style="endArrow=classic;html=1;fontSize=8;" edge="1" parent="1">
                    <mxGeometry width="50" height="50" relative="1" as="geometry">
                        <mxPoint x="294" y="761" as="sourcePoint"/>
                        <mxPoint x="414" y="761" as="targetPoint"/>
                    </mxGeometry>
                </mxCell>
                <mxCell id="80" value="reg_id" style="edgeLabel;html=1;align=center;verticalAlign=middle;resizable=0;points=[];fontSize=8;" vertex="1" connectable="0" parent="79">
                    <mxGeometry x="0.4429" y="1" relative="1" as="geometry">
                        <mxPoint x="-20" as="offset"/>
                    </mxGeometry>
                </mxCell>
                <mxCell id="85" value="" style="endArrow=classic;html=1;fontSize=8;" edge="1" parent="1">
                    <mxGeometry width="50" height="50" relative="1" as="geometry">
                        <mxPoint x="291" y="711" as="sourcePoint"/>
                        <mxPoint x="414" y="711" as="targetPoint"/>
                    </mxGeometry>
                </mxCell>
                <mxCell id="86" value="head" style="edgeLabel;html=1;align=center;verticalAlign=middle;resizable=0;points=[];fontSize=8;" vertex="1" connectable="0" parent="85">
                    <mxGeometry x="0.4429" y="1" relative="1" as="geometry">
                        <mxPoint x="-20" as="offset"/>
                    </mxGeometry>
                </mxCell>
                <mxCell id="87" value="" style="endArrow=classic;html=1;fontSize=8;" edge="1" parent="1">
                    <mxGeometry width="50" height="50" relative="1" as="geometry">
                        <mxPoint x="291" y="721" as="sourcePoint"/>
                        <mxPoint x="414" y="721" as="targetPoint"/>
                    </mxGeometry>
                </mxCell>
                <mxCell id="88" value="tail" style="edgeLabel;html=1;align=center;verticalAlign=middle;resizable=0;points=[];fontSize=8;" vertex="1" connectable="0" parent="87">
                    <mxGeometry x="0.4429" y="1" relative="1" as="geometry">
                        <mxPoint x="-20" as="offset"/>
                    </mxGeometry>
                </mxCell>
                <mxCell id="89" value="between reg &amp;amp; rob" style="shape=singleArrow;whiteSpace=wrap;html=1;fontSize=8;gradientColor=none;" vertex="1" parent="1">
                    <mxGeometry x="290" y="910" width="124" height="60" as="geometry"/>
                </mxCell>
                <mxCell id="90" value="" style="endArrow=classic;html=1;fontSize=8;" edge="1" parent="1">
                    <mxGeometry width="50" height="50" relative="1" as="geometry">
                        <mxPoint x="294" y="880" as="sourcePoint"/>
                        <mxPoint x="414" y="880" as="targetPoint"/>
                    </mxGeometry>
                </mxCell>
                <mxCell id="91" value="wrong_predicted" style="edgeLabel;html=1;align=center;verticalAlign=middle;resizable=0;points=[];fontSize=8;" vertex="1" connectable="0" parent="90">
                    <mxGeometry x="0.4429" y="1" relative="1" as="geometry">
                        <mxPoint x="-20" as="offset"/>
                    </mxGeometry>
                </mxCell>
                <mxCell id="92" value="" style="endArrow=classic;html=1;fontSize=8;" edge="1" parent="1">
                    <mxGeometry width="50" height="50" relative="1" as="geometry">
                        <mxPoint x="294" y="890" as="sourcePoint"/>
                        <mxPoint x="414" y="890" as="targetPoint"/>
                    </mxGeometry>
                </mxCell>
                <mxCell id="93" value="next_pc" style="edgeLabel;html=1;align=center;verticalAlign=middle;resizable=0;points=[];fontSize=8;" vertex="1" connectable="0" parent="92">
                    <mxGeometry x="0.4429" y="1" relative="1" as="geometry">
                        <mxPoint x="-20" as="offset"/>
                    </mxGeometry>
                </mxCell>
            </root>
        </mxGraphModel>
    </diagram>
</mxfile>